<?xml version="1.0" encoding="utf-8"?>
<!-- Generator: Adobe Illustrator 27.2.0, SVG Export Plug-In . SVG Version: 6.00 Build 0)  -->
<svg version="1.1" id="Layer_1" xmlns="http://www.w3.org/2000/svg" xmlns:xlink="http://www.w3.org/1999/xlink" x="0px" y="0px"
	 viewBox="0 0 180 80" style="enable-background:new 0 0 180 80;" xml:space="preserve">
<style type="text/css">
	.st0{fill:#141C27;}
	.st1{fill:#55E6A5;}
	.st2{fill:#FFFFFF;stroke:#FFFFFF;stroke-miterlimit:10;}
</style>
<rect x="0.1" y="-0.1" class="st0" width="180.5" height="80.3"/>
<g>
	<polygon class="st1" points="48.2,11.2 54.5,11.2 47.2,30.4 40.8,30.4 	"/>
	<polygon class="st1" points="38.5,11.2 44.8,11.2 37.4,30.4 31.1,30.4 	"/>
	<polygon class="st1" points="29.8,32.7 36.1,32.7 28.8,51.9 22.5,51.9 	"/>
	<polygon class="st1" points="39.9,32.7 46.2,32.7 31.6,69.1 25.3,69.1 	"/>
	<polygon class="st1" points="48.9,32.7 55.2,32.7 40.7,69.1 34.3,69.1 	"/>
	<polygon class="st1" points="21,32.7 27.4,32.7 20,51.9 13.7,51.9 	"/>
</g>
<g>
	<g>
		<path class="st2" d="M90.5,47.5V29.4h2.5v18.1H90.5z M92.3,47.5v-2.4h4.1c1.3,0,2.4-0.3,3.1-1c0.7-0.7,1.1-1.7,1.1-2.9v-5.3
			c0-1.3-0.4-2.2-1.1-2.9c-0.7-0.7-1.8-1-3.1-1h-4.1v-2.4h4c2.2,0,3.9,0.6,5.1,1.7c1.2,1.1,1.8,2.7,1.8,4.8V41
			c0,1.4-0.3,2.5-0.8,3.5s-1.3,1.7-2.4,2.2c-1,0.5-2.3,0.8-3.7,0.8H92.3z"/>
		<path class="st2" d="M105.5,47.5l6.7-18.1h2.2l6.7,18.1h-2.7l-5-14.6l-5,14.6H105.5z M108.6,43.5v-2.4h9.5v2.4H108.6z"/>
		<path class="st2" d="M123.8,47.5V29.4h2.3l8.9,14l-0.3,0.3V29.4h2.5v18.1h-2.3L126,33.7l0.3-0.3v14.1H123.8z"/>
		<path class="st2" d="M144.2,29.4v18.1h-2.5V29.4H144.2z"/>
		<path class="st2" d="M148.7,47.5V29.4h2.5v18.1H148.7z M149.9,31.8v-2.4h10.4v2.4H149.9z M149.9,39.7v-2.4h9v2.4H149.9z
			 M149.9,47.5v-2.4h10.4v2.4H149.9z"/>
		<path class="st2" d="M163.9,47.5V29.4h2.5v18.1H163.9z M165.2,47.5v-2.4h10.4v2.4H165.2z"/>
	</g>
</g>
</svg>
