<?xml version="1.0" encoding="utf-8"?>
<!-- Generator: Adobe Illustrator 27.2.0, SVG Export Plug-In . SVG Version: 6.00 Build 0)  -->
<svg version="1.1" id="Layer_1" xmlns="http://www.w3.org/2000/svg" xmlns:xlink="http://www.w3.org/1999/xlink" x="0px" y="0px"
	 viewBox="0 0 180 80" style="enable-background:new 0 0 180 80;" xml:space="preserve">
<style type="text/css">
	.st0{fill:#141C27;}
	.st1{fill:#55E6A5;}
	.st2{fill:#FFFFFF;stroke:#FFFFFF;stroke-miterlimit:10;}
</style>
<rect y="0.2" class="st0" width="180" height="79.8"/>
<rect x="-1.4" y="-1.4" class="st1" width="82" height="82.8"/>
<g>
	<g>
		<path class="st2" d="M93.3,48.7V30.8h2.5v17.9H93.3z M95,48.7v-2.4h4c1.3,0,2.3-0.3,3.1-1s1.1-1.6,1.1-2.9v-5.3
			c0-1.2-0.4-2.2-1.1-2.9s-1.7-1-3.1-1h-4v-2.4h4c2.2,0,3.8,0.6,5,1.7s1.8,2.7,1.8,4.7v5.1c0,1.4-0.3,2.5-0.8,3.5
			c-0.5,1-1.3,1.7-2.3,2.2c-1,0.5-2.2,0.8-3.7,0.8H95z"/>
		<path class="st2" d="M108.1,48.7l6.6-17.9h2.1l6.6,17.9h-2.7l-5-14.4l-5,14.4H108.1z M111.1,44.8v-2.4h9.4v2.4H111.1z"/>
		<path class="st2" d="M126.1,48.7V30.8h2.3l8.7,13.8l-0.3,0.3V30.8h2.5v17.9H137l-8.7-13.6l0.3-0.3v13.9H126.1z"/>
		<path class="st2" d="M146.3,30.8v17.9h-2.5V30.8H146.3z"/>
		<path class="st2" d="M150.7,48.7V30.8h2.5v17.9H150.7z M151.9,33.2v-2.4h10.3v2.4H151.9z M151.9,41v-2.4h8.9V41H151.9z
			 M151.9,48.7v-2.4h10.3v2.4H151.9z"/>
		<path class="st2" d="M165.7,48.7V30.8h2.5v17.9H165.7z M167,48.7v-2.4h10.2v2.4H167z"/>
	</g>
</g>
<g>
	<polygon class="st0" points="49.7,10.5 56.1,10.5 48.7,30 42.2,30 	"/>
	<polygon class="st0" points="39.8,10.5 46.2,10.5 38.7,30 32.3,30 	"/>
	<polygon class="st0" points="30.9,32.4 37.4,32.4 29.9,52 23.5,52 	"/>
	<polygon class="st0" points="41.2,32.4 47.7,32.4 32.8,69.5 26.4,69.5 	"/>
	<polygon class="st0" points="50.4,32.4 56.9,32.4 42,69.5 35.6,69.5 	"/>
	<polygon class="st0" points="22,32.4 28.5,32.4 21,52 14.5,52 	"/>
</g>
</svg>
